<?xml version="1.0" encoding="utf-8"?>
<!-- Generator: Adobe Illustrator 23.0.4, SVG Export Plug-In . SVG Version: 6.00 Build 0)  -->
<svg version="1.1" id="illustration" xmlns="http://www.w3.org/2000/svg" xmlns:xlink="http://www.w3.org/1999/xlink" x="0px"
	 y="0px" viewBox="0 0 900 350" style="enable-background:new 0 0 900 350;" xml:space="preserve">
<style type="text/css">
	.st0{fill:#DDDDDC;}
	.st1{fill:#858686;}
	.st2{fill:#A3A3A3;}
	.st3{fill:#96637C;}
	.st4{fill:#734D60;}
	.st5{fill:#785D88;}
	.st6{fill:#9075A0;}
	.st7{fill:#B3889D;}
	.st8{fill:#FFF0E8;}
	.st9{fill:#D1A1B8;}
	.st10{fill:#737373;}
	.st11{opacity:0.14;enable-background:new    ;}
	.st12{fill:#A688BA;}
	.st13{fill:#D8BCA9;}
	.st14{fill:#594165;}
	.st15{fill:#EBEBEA;}
	.st16{fill:none;stroke:#A3A3A3;stroke-miterlimit:10;}
	.st17{fill:#DFBDA5;}
	.st18{fill:#C3987B;}
	.st19{fill:#E8CAB6;}
	.st20{fill:#8B6651;}
	.st21{fill:#4F5253;}
	.st22{opacity:0.1;enable-background:new    ;}
	.st23{fill:#474747;}
	.st24{fill:#6F7173;}
	.st25{fill:#8F8F8F;}
	.st26{fill:none;}
	.st27{fill:#ECECEB;}
	.st28{opacity:0.2;enable-background:new    ;}
	.st29{fill:#CECECD;}
</style>
<title>analysts_INTJ_scene_med_introduction (1)</title>
<g id="rocks3">
	<polygon class="st0" points="674,160.6 720.3,168.2 768.7,162.1 762.3,146.4 677.7,153.8 	"/>
	<polygon class="st1" points="720.3,166.2 720.4,180 712,205.7 665.7,200.1 674,160.6 	"/>
	<polygon class="st2" points="712,205.7 720.3,205.1 768.7,176 768.7,162.1 720.3,166.2 	"/>
	<polygon class="st0" points="766,116.2 784.7,111.6 805.7,118.8 779.7,124.4 	"/>
	<polygon class="st1" points="766,116.2 755,207 782.3,214.7 782.4,147 779.7,122.4 	"/>
	<polygon class="st2" points="779.7,122.4 805.7,118.8 814,210.4 782.3,214.7 	"/>
	<polygon class="st0" points="809.1,156.8 863.5,169.3 810.7,175.6 796.8,162.7 	"/>
	<polygon class="st1" points="796.8,162.7 793.5,213.2 805.7,220.3 811,188.8 810.7,173.6 	"/>
	<polygon class="st2" points="810.7,173.6 805.7,220.3 865.5,216.2 863.5,169.3 	"/>
	<polygon class="st0" points="864.5,193.9 864.2,185.1 890,200.1 849.5,211.5 833.5,202 	"/>
	<polygon class="st1" points="833.5,202 830.2,219.4 849.5,222.1 851.5,215.5 849.5,209.5 	"/>
	<polygon class="st2" points="890,200.1 900,216.8 849.5,222.1 849.5,209.5 	"/>
	<polygon class="st0" points="728.8,176 759,174.2 766,186.7 737.3,187.1 	"/>
	<polygon class="st2" points="766,186.7 768.7,211 737.3,212 735.3,199.2 737.3,185.1 	"/>
	<polygon class="st1" points="728.8,176 720.3,205.1 737.3,212 737.3,185.1 	"/>
	<polygon class="st0" points="757.5,203.4 781.8,197.3 819.2,219.4 776.5,221.4 	"/>
	<polygon class="st1" points="757.5,203.4 754.2,211.5 768.7,231.2 775.5,224 776.5,219.4 	"/>
	<polygon class="st2" points="819.2,219.4 822,226 768.7,231.2 776.5,219.4 	"/>
	<polygon class="st0" points="306,149 224.2,146.4 247,165.7 309.9,159.1 	"/>
	<polygon class="st1" points="247,162.7 248.6,181.3 243.5,216.4 224.2,200.1 224.2,146.4 	"/>
	<polygon class="st2" points="247,162.7 309.9,159.1 306,212.4 243.5,216.4 	"/>
	<polygon class="st0" points="171.3,166.2 224.2,165.3 234.5,175 184,188.7 	"/>
	<polygon class="st1" points="171.3,166.2 168.3,189.7 185.5,205.1 187.7,195.9 184,186.7 	"/>
	<polygon class="st2" points="234.5,175 229.8,203.4 185.5,205.1 184,186.7 	"/>
	<polygon class="st0" points="93.4,149.1 139.8,143.7 190,166.7 132,182 	"/>
	<polygon class="st1" points="93.4,149.1 83.3,202 116.5,229.4 134.6,188 132,177 	"/>
	<polygon class="st2" points="132,177 190,166.7 172.6,222.1 116.5,229.4 	"/>
	<polygon class="st0" points="86.3,186.2 88.8,173.4 12.3,175.8 36.7,195.2 	"/>
	<polygon class="st1" points="12.3,175.8 0,197.2 32.5,221.2 38.1,203.3 36.7,192.2 	"/>
	<polygon class="st2" points="86.3,186.2 82,213.6 32.5,221.2 36.7,192.2 	"/>
	<polygon class="st0" points="64.5,206.4 83.3,202 110.6,217.3 74.3,223.2 	"/>
	<polygon class="st1" points="64.5,206.4 55.5,226 74.3,237.3 77.3,228 74.3,221.2 	"/>
	<polygon class="st2" points="110.6,217.3 116.5,229.4 74.3,237.3 74.3,221.2 	"/>
</g>
<g id="bat">
	<polygon class="st3" points="676.5,75.4 667.2,69.8 668.8,52.6 672.2,42 680.6,39.9 	"/>
	<polygon class="st4" points="672.2,42 667.2,69.8 656.1,71 660.1,54.2 665.7,41.3 	"/>
	<polygon class="st3" points="665.7,41.3 656.1,71 650,57.3 652.5,48.5 656.9,43.2 	"/>
	<polygon class="st3" points="598.7,14.3 613,26 626.5,22.6 637.4,17.8 636.3,10.8 	"/>
	<polygon class="st4" points="637.4,17.8 641,22.3 641,26 631.1,33.3 618,39 613,26 	"/>
	<polygon class="st3" points="641,26 643.5,29.4 644.1,33 636.4,41 627,46.2 618,39 	"/>
	<polygon class="st4" points="644.1,33 646.8,35.1 646.8,39.9 640.4,50.2 627,46.2 	"/>
	<polygon class="st5" points="656.1,47.7 650,57.3 640.4,50.2 643.5,42.8 650.3,43.4 	"/>
	<polygon class="st6" points="657.9,38 656.1,47.7 643.5,42.8 648.4,34.2 	"/>
	<polygon class="st3" points="663.7,27 670,26 666.5,34.2 662.8,29.9 	"/>
	<polygon class="st3" points="653.7,22.3 650.3,16.1 645.7,22.3 650.1,23.3 	"/>
	<polygon class="st7" points="645.7,22.3 650,41.3 666.5,34.2 663.7,27 653.7,22.3 	"/>
	<polygon class="st5" points="663.5,35.5 660,29 654.6,30.8 652.5,26 646.8,27.3 648.4,34.2 653.8,33 657.9,38 	"/>
	<polygon class="st3" points="648.9,36.6 654.6,39.3 650,41.3 	"/>
	<polygon class="st8" points="648.9,29.3 650.9,28.7 651.8,31.1 650,31.1 	"/>
	<polygon class="st8" points="656.9,33 659.5,32 660.1,34.6 657.8,34.6 	"/>
	<polygon class="st9" points="657.9,38 687.5,36.6 686.8,41 681.7,42.8 679.3,41.5 656.9,43.2 	"/>
	<polygon class="st9" points="648.4,34.2 639.3,7.2 635,9.6 635,12.3 646.3,38 	"/>
	<polygon class="st7" points="686.8,41 678.7,76.7 676.5,75.4 679.3,41.5 	"/>
	<polygon class="st7" points="635,12.3 598.7,14.3 599.5,12.3 639.3,7.2 	"/>
</g>
<g id="rocks2">
	<polygon class="st0" points="698.3,213.2 732.7,220.3 721.3,249.3 619.7,247.3 618.2,229.4 	"/>
	<polygon class="st2" points="732.7,220.3 737.3,261.8 723.7,266 720.3,257.4 720.3,247.3 	"/>
	<polygon class="st10" points="720.3,247.3 619,239.7 638.3,258.8 723.7,266 	"/>
	<polygon class="st0" points="678.6,173.4 695.3,175 707.3,186.7 676.4,193.5 656.3,194.6 650,180.3 	"/>
	<polygon class="st2" points="707.3,186.7 701,229.4 648,239.7 656.3,194.6 	"/>
	<polygon class="st0" points="650,101.8 681.3,114.8 666.7,118.4 654.6,117.7 	"/>
	<polygon class="st2" points="681.3,114.8 678,183.3 666.5,184.7 654.6,117.7 	"/>
	<polygon class="st0" points="697.7,252.9 707.3,265.1 661,272.2 634.3,256.8 653.7,253.4 	"/>
	<polygon class="st2" points="707.3,265.1 710,281.7 659,284.4 658,277 661,270.2 	"/>
	<polygon class="st10" points="659,284.4 633,273.9 634.3,256.8 661,270.2 	"/>
</g>
<g id="torch">
	<polygon class="st11" points="695.4,230.4 712,237.1 727.9,229.7 706,225.3 	"/>
	<polygon class="st5" points="713.1,171.7 710.3,143.5 716,147 	"/>
	<polygon class="st5" points="697.7,117.2 722,112.2 743.7,120.4 723.5,129 	"/>
	<polygon class="st6" points="714.4,202 723.5,145.5 720,144.2 716,147 707.3,186.7 710.3,201.7 	"/>
	<polygon class="st5" points="707.3,186.7 695.4,230.4 704,230.7 714.4,202 	"/>
	<polygon class="st4" points="716,147 717.6,134.1 726.8,130 734.3,128.8 723.5,145.5 	"/>
	<polygon class="st3" points="719.3,135.2 713,131 704.9,130.1 702,144.1 716,147 	"/>
	<polygon class="st6" points="719.3,135.2 718.9,129.6 723.5,126 743.7,120.4 734.3,128.8 	"/>
	<polygon class="st12" points="723.5,126 697.7,117.2 704.9,130.1 719.3,135.2 	"/>
	<polygon class="st9" points="723.5,126 717.7,115.2 731.3,101 736.7,113.5 	"/>
	<polygon class="st7" points="723.5,126 720.7,117.2 716.3,110.4 708.5,106.8 712.1,122.1 	"/>
	<polygon class="st13" points="720.7,117.2 731.3,101 725.3,91.9 719.3,88.8 708.5,106.8 	"/>
	<polygon class="st7" points="731.3,101 736.7,93.7 725.2,76.7 719.2,79.9 719.3,88.8 	"/>
	<polygon class="st9" points="719.3,88.8 712.1,80.9 720.7,62 725.2,76.7 	"/>
</g>
<g id="torch2">
	<polygon class="st5" points="75.3,127.4 99.3,118.1 123.5,121.2 103,134.1 	"/>
	<polygon class="st5" points="139.5,256.3 133.6,223.2 121.4,213 128.1,262.4 	"/>
	<polygon class="st6" points="133.6,223.2 105.9,200.1 108.6,193.9 111.5,191.3 130.3,209.5 	"/>
	<polygon class="st5" points="105.9,200.1 103,151 111.8,141.5 111.5,191.3 	"/>
	<polygon class="st4" points="103.4,157.7 93.4,149.1 86.5,136.4 105,138.4 105.6,144.6 	"/>
	<polygon class="st3" points="104,140.4 111,132.6 119.8,127.4 111.8,147.1 103.4,157.7 	"/>
	<polygon class="st6" points="104,140.4 105.4,135 103,131.3 75.3,127.4 86.5,136.4 	"/>
	<polygon class="st12" points="103,131.3 123.5,121.2 119.8,127.4 104,140.4 	"/>
	<polygon class="st9" points="103,129.3 102.2,114.4 98,109 90.4,104.6 84.7,116.2 90.8,129.6 	"/>
	<polygon class="st13" points="90.4,104.6 91.7,98.2 101.7,93 109.7,105 102.2,114.4 	"/>
	<polygon class="st7" points="102.2,114.4 90.8,129.6 103,131.3 107.4,118.8 	"/>
	<polygon class="st7" points="101.7,93 97.3,87.2 91.9,87.2 86.7,95.3 90.4,104.6 	"/>
	<polygon class="st9" points="91.9,87.2 101.7,74.5 107.4,84.9 101.7,93 	"/>
</g>
<g id="machine">
	<polygon class="st12" points="435.3,35 439,15.2 482.5,42.8 525.2,15.2 530,36.7 481.9,55.8 	"/>
	<polygon class="st5" points="440.5,33.4 442.8,23.8 451.3,30 444,34.2 	"/>
	<polygon class="st5" points="511.8,30.7 521.8,23.8 523,34.2 515,34.2 	"/>
	<polygon class="st6" points="431.5,56.9 435.3,35 481,20.7 530,36.7 533.5,52.7 480,56.9 	"/>
	<polygon class="st9" points="444,56.4 446.8,43.6 453.4,40 456.6,39.2 468.9,36.1 475.8,36.6 481,33 494.1,36.1 500,40.5 
		507.1,39.1 518.2,41.8 519.7,53.2 482.5,56.9 	"/>
	<polygon class="st3" points="507.1,39.1 508.5,53.7 495.4,55.2 494.1,36.1 	"/>
	<polygon class="st3" points="481,33 481.9,55.8 468,55.4 468.9,36.1 	"/>
	<polygon class="st3" points="456.6,39.2 456.6,56.9 444,56.4 445.5,42 	"/>
	<polygon class="st12" points="450,217.3 492,222.1 546,219.4 552,193 552,166.7 492,165.3 426.5,171.5 430.8,193.8 	"/>
	<polygon class="st14" points="641.7,249 633,273.9 594.7,279.1 633.7,243.8 	"/>
	<polygon class="st14" points="657.3,214.7 654,253 596.9,272.9 	"/>
	<polygon class="st6" points="431.5,56.9 533.5,52.7 549.5,111.9 552,166.7 426.5,171.5 419.5,107.6 	"/>
	<polygon class="st5" points="359,30 431.5,56.9 426.5,171.5 385,184.6 342.5,190.4 345.5,107.6 	"/>
	<polygon class="st5" points="533.5,52.7 617.5,33 640.5,108.5 652.5,185.1 599.2,183.8 552,166.7 	"/>
	<polygon class="st12" points="617.5,33 650,57.3 669.5,176 663.5,183.8 652.5,185.1 	"/>
	<polygon class="st14" points="359,30 325,64.3 325,186.1 333.8,193 342.5,190.4 	"/>
	<polygon class="st6" points="342.5,190.4 426.5,171.5 450,217.3 380.5,245.2 	"/>
	<polygon class="st6" points="552,166.7 546,219.4 593,234.1 652.5,185.1 	"/>
	<polygon class="st5" points="450,217.3 453.5,249 453,286.3 382.5,301.2 375,268.7 380.5,245.2 	"/>
	<polygon class="st14" points="546,219.4 541.5,250.9 546,283 589.5,289.4 596.9,259.2 593,234.1 	"/>
	<polygon class="st5" points="652.5,185.1 661,195.8 666.5,220.3 589.5,289.4 593,234.1 	"/>
	<polygon class="st6" points="669.5,176 666.5,220.3 652.5,185.1 	"/>
	<polygon class="st14" points="380.5,245.2 382.5,301.2 328.5,222.1 333.5,200.4 342.5,190.4 	"/>
	<polygon class="st6" points="325,186.1 342.5,190.4 328.5,222.1 	"/>
	<polygon class="st6" points="450,217.3 546,219.4 546,283 453,286.3 	"/>
	<polygon class="st15" points="430.8,71.8 536.3,69.8 546,111.5 550.1,155.3 426.5,159.1 423,117.7 	"/>
	<polygon class="st0" points="430.8,71.8 371.5,48.5 359,169.3 426.5,159.1 	"/>
	<polygon class="st0" points="536.3,69.8 605.4,50.5 628,162.1 550.1,155.3 	"/>
	<polygon class="st3" points="480,285.4 480,229.9 513.5,229.4 513.5,284.2 	"/>
	<rect x="484.8" y="237.3" class="st9" width="23.8" height="5.7"/>
	<rect x="484.8" y="247.3" class="st9" width="23.8" height="5.7"/>
	<rect x="484.8" y="257.3" class="st9" width="23.8" height="5.7"/>
	<polygon class="st9" points="560.3,178.4 596.9,186.1 578.6,199.2 555.7,193 	"/>
	<polygon class="st3" points="555.7,193 555.7,198.2 576.3,204.1 578.6,198.2 	"/>
	<polygon class="st7" points="567.2,201.5 596.9,180.3 619.7,185.1 585,208.9 	"/>
	<polygon class="st4" points="567.2,201.5 565,211 585.3,219.4 587.2,212.2 585,206.9 	"/>
	<polygon class="st3" points="619.7,185.1 627.1,193.6 585.3,219.4 585,206.9 	"/>
	<polygon class="st9" points="437,192 402.9,198.9 368.2,208.4 375,219.4 405.7,209.9 439.7,197.2 	"/>
	<polygon class="st7" points="437,192 492,189.4 549.5,188.8 548.5,197.2 491,198.2 439.7,197.2 	"/>
	<polygon class="st9" points="547.4,207 444,205.6 439.7,197.2 548.5,197.2 	"/>
	<polygon class="st9" points="549.5,188.8 437,192 432.3,182.8 550.1,180.3 	"/>
	<polygon class="st7" points="432.3,182.8 362.2,199.2 368.2,208.4 437,192 	"/>
	<polygon class="st7" points="439.7,197.2 444,205.6 381,229.4 375,219.4 	"/>
	<polygon class="st3" points="457.8,197.2 459.2,205.7 475.5,206 475.5,197.2 	"/>
	<polygon class="st3" points="486.6,197.2 486.6,206 503.2,206.4 504.2,197.2 	"/>
	<polygon class="st3" points="517.2,197.2 516.2,206.6 530.2,206.7 532.2,197.2 	"/>
	<polygon class="st3" points="456.8,191.4 455.2,182.4 475.5,181.9 475.5,190.9 	"/>
	<polygon class="st3" points="486.6,190.6 486.6,181.7 504.2,181.7 504.2,190.1 	"/>
	<polygon class="st3" points="518.2,189.7 519.5,181 536.3,181 533.5,189.2 	"/>
	<polygon class="st3" points="456.8,191.4 437,192 439.7,197.2 457.8,197.2 	"/>
	<polygon class="st3" points="475.5,190.9 486.6,190.6 486.6,197.2 475.5,197.2 	"/>
	<polygon class="st3" points="504.2,190.1 518.2,189.7 517.2,197.2 504.2,197.2 	"/>
	<polygon class="st3" points="533.5,189.2 549.5,188.8 548.5,197.2 532.2,197.2 	"/>
	<polygon class="st3" points="426.5,194.5 421.7,185.3 408.2,188.5 414.7,197.3 	"/>
	<polygon class="st3" points="397.9,201.3 391.8,192.3 377.6,195.6 384.9,204.4 	"/>
	<polygon class="st3" points="390,214.3 394.9,224.2 409.5,218.7 404,209.5 	"/>
	<polygon class="st3" points="417.4,204.9 430.4,200.4 435.3,208.9 423,213.6 	"/>
	<polygon class="st3" points="384.9,204.4 390,214.3 375,219.4 368.2,208.4 	"/>
	<polygon class="st3" points="397.9,201.3 414.7,197.3 417.4,204.9 404,209.5 	"/>
	<polygon class="st6" points="437.5,80.5 479,81.8 481,129 437.5,130 	"/>
	<polygon class="st15" points="441.8,83.8 475.9,85.5 477.5,124.8 472.2,125.1 460.1,125.2 448.1,126.7 440.2,127.2 	"/>
	<polygon class="st7" points="438.5,139.2 445,139.2 444,151 438.5,151 	"/>
	<polygon class="st7" points="447.4,139.2 453.5,139.2 453.5,150 447.4,151 	"/>
	<polygon class="st7" points="456.8,139.2 464.4,139.2 463,149.8 456.8,149.8 	"/>
	<rect x="467" y="139.2" class="st7" width="6.9" height="10.5"/>
	<polygon class="st3" points="486.6,105.4 498,105.2 498,116.2 486.6,116.2 	"/>
	<rect x="502.3" y="105.4" class="st3" width="12.2" height="10.9"/>
	<polygon class="st3" points="518.4,105.4 529.5,105.2 529.5,116.2 518.4,116.2 	"/>
	<polygon class="st6" points="486.6,125.2 489.2,123.5 491.2,128 495.4,121.2 496.5,122.6 491.2,130.9 	"/>
	<polygon class="st6" points="487.6,136.2 490.2,134.1 491.2,137.2 495.4,132.8 496.5,133.9 491.2,140.4 	"/>
	<polygon class="st6" points="488.2,145.9 490.5,143.9 492.3,147.2 496.5,142.6 498,144 491.5,150.4 	"/>
	<line class="st16" x1="502.3" y1="123.1" x2="531" y2="123.1"/>
	<line class="st16" x1="502.3" y1="127.1" x2="516" y2="127.1"/>
	<line class="st16" x1="502.3" y1="134.1" x2="531" y2="134.1"/>
	<line class="st16" x1="502.3" y1="138.1" x2="516" y2="138.1"/>
	<line class="st16" x1="502.3" y1="144.1" x2="531" y2="144.1"/>
	<line class="st16" x1="502.3" y1="148.1" x2="516" y2="148.1"/>
	<line class="st16" x1="487.6" y1="83" x2="524" y2="83"/>
	<line class="st16" x1="487.6" y1="88" x2="514" y2="88"/>
	<line class="st16" x1="487.6" y1="93" x2="504" y2="93"/>
	<polygon class="st3" points="377.6,66 387.8,69.8 387,83 375,78.7 	"/>
	<polygon class="st3" points="375,95.3 387,97.8 384.7,110.8 373.7,108.9 	"/>
	<polygon class="st3" points="372,124.2 382.5,126.1 381.4,137.2 370,137.2 	"/>
	<line class="st16" x1="394.9" y1="75.7" x2="419.5" y2="83"/>
	<line class="st16" x1="393.9" y1="80.7" x2="409.2" y2="84.9"/>
	<line class="st16" x1="393.6" y1="103.6" x2="418.7" y2="109"/>
	<line class="st16" x1="393" y1="108.7" x2="408.6" y2="111.7"/>
	<line class="st16" x1="391.2" y1="131.3" x2="416.8" y2="133.2"/>
	<line class="st16" x1="391.3" y1="136.4" x2="407.2" y2="137.3"/>
	<polygon class="st9" points="369,148.8 419.5,145.7 419.5,154.1 368.2,160.3 	"/>
	<polyline class="st16" points="560.8,80.5 569.2,142.6 593,141.1 	"/>
	<line class="st16" x1="566.7" y1="124.2" x2="590.4" y2="122.2"/>
	<line class="st16" x1="564.3" y1="107.3" x2="590.4" y2="103.6"/>
	<line class="st16" x1="562.5" y1="93" x2="586.2" y2="89"/>
	<polygon class="st17" points="447.4,94.8 449.3,107.3 450.4,118.8 455.3,118.5 459.8,118.8 464.4,118.1 471.1,117.7 468.2,91.3 
		458.5,95.6 	"/>
	<polygon class="st18" points="452.1,101.8 456.6,101.1 458,101.7 459.6,100.6 465.2,99.6 460.4,108.3 457.5,109.2 	"/>
	<polygon class="st10" points="448.1,95.4 449.3,107.3 447.1,104.4 445.3,92.5 457.4,88 471.1,88.9 471.1,101.8 469.9,106.3 
		467.2,92.5 458.5,96.6 	"/>
	<polygon class="st10" points="452.1,101.8 455.8,99.6 456.6,101.1 	"/>
	<polygon class="st10" points="459.6,100.6 459.6,98.5 465.2,99.6 	"/>
	<polygon class="st19" points="459.6,100.6 460.4,108.3 457.5,109.2 456.6,101.1 	"/>
	<polygon class="st20" points="460.4,108.3 458.7,110.8 457.5,109.2 	"/>
	<polygon class="st20" points="453.2,112.5 459.6,113.2 466.5,111.2 466.5,112.2 459.6,114.8 453.2,113.8 	"/>
	<ellipse cx="462.8" cy="103.6" rx="0.9" ry="1.2"/>
	<ellipse cx="454.4" cy="104.6" rx="0.9" ry="1.2"/>
	<polygon class="st18" points="447.1,104.4 445.3,104.4 446.8,109.9 449.6,110.2 449.3,107.3 	"/>
	<polygon class="st18" points="471.1,101.8 473.1,101.8 472.7,107.3 470.1,108.3 469.9,106.3 	"/>
	<polygon class="st3" points="455.3,118.5 448.1,126.8 472.2,125.1 464.4,118.1 459.3,119.1 	"/>
	<polygon class="st20" points="455.3,118.5 459.6,124.2 464.4,118.1 	"/>
	<polygon class="st7" points="548.5,77.7 571.7,72.3 573,79.3 550.1,84.9 	"/>
	<polygon class="st7" points="581.3,85.5 598.2,81.7 599.5,88.7 582.9,92.8 	"/>
	<polygon class="st7" points="584.5,101.3 601.5,98.5 602.4,105.6 585.6,108.7 	"/>
	<polygon class="st7" points="588.1,119.4 605.3,117.7 605.8,124.8 588.8,126.8 	"/>
	<polygon class="st7" points="589.8,137.7 607,136.5 607.2,143.6 590.3,145.2 	"/>
</g>
<g id="rocks">
	<polygon class="st10" points="272.4,237.4 258.8,226 249,270.1 270.4,284.4 294.6,280.6 306,280.4 313.9,268.7 	"/>
	<polygon class="st0" points="325,127.2 310,132.2 294.7,116.2 325,119.2 	"/>
	<polygon class="st2" points="310,129.2 310.8,149 314.7,163.7 325,170.8 325,127.2 	"/>
	<polygon class="st1" points="294.7,116.2 303.5,165.3 314.7,163.7 310,129.2 	"/>
	<polygon class="st0" points="279,169.3 289.2,184.7 325,170.8 325,162.1 	"/>
	<polygon class="st1" points="279,169.3 268.8,230.9 293.5,216.7 289.2,181.7 	"/>
	<polygon class="st2" points="289.2,181.7 291.5,214.7 325,230.4 325,186.1 325,170.8 	"/>
	<polygon class="st0" points="299.1,228 323,222.1 291.5,214.7 258.8,226 272.4,237.4 	"/>
	<polygon class="st0" points="450.8,235.5 465.2,243.8 451.3,255 432.3,243.8 	"/>
	<polygon class="st10" points="432.3,243.8 430.8,255.9 447,286.3 455.3,270.1 451.3,253 	"/>
	<polygon class="st2" points="465.2,243.8 480,285.4 444.4,310.9 439.7,297.9 447,286.3 451.3,253 	"/>
	<polygon class="st0" points="430.8,255.9 447,286.3 426.5,287 352.9,275.1 359,257.4 381.3,268.7 	"/>
	<polygon class="st10" points="447,286.3 444.4,310.9 347.2,296.4 352.9,275.1 	"/>
	<polygon class="st0" points="325,186.1 303.5,191.3 326.7,205.1 342.5,190.4 	"/>
	<polygon class="st2" points="342.5,190.4 345.8,247.3 323,257.4 323,224.8 326.7,203.1 	"/>
	<polygon class="st10" points="303.5,191.3 295,258.2 323,257.4 326.7,203.1 	"/>
	<polygon class="st0" points="344.9,233 324,242.2 297.7,238.9 299.6,222.1 272.4,237.4 310.7,268.7 355.5,243.2 	"/>
	<polygon class="st2" points="355.5,243.2 359,257.4 333,273.4 306,280.4 310.7,268.7 	"/>
	<polygon class="st0" points="352.9,275.1 359,257.4 306,280.4 284.8,277.1 270.4,284.4 321.5,289.3 	"/>
	<polygon class="st2" points="321.5,289.3 320.1,307.6 349.2,296.4 352.9,275.1 	"/>
	<polygon class="st1" points="320.1,307.6 262,300.4 264.6,291.6 270.4,284.4 321.5,289.3 	"/>
	<polygon class="st0" points="270.4,284.4 249,270.1 239,289.3 255.1,288.8 	"/>
	<polygon class="st2" points="270.4,284.4 262,300.4 243,303.6 239,289.3 	"/>
	<polygon class="st0" points="527.3,271.1 513.5,273.9 524.5,292.4 568.7,286.3 560.8,278 540.9,280.4 	"/>
	<polygon class="st0" points="546,240.1 556.8,250.1 541.5,258.8 530.2,240.3 	"/>
	<polygon class="st10" points="530.2,240.3 527.3,271.1 540.9,284.4 543.3,266.8 541.5,256.8 	"/>
	<polygon class="st2" points="556.8,250.1 560.8,278 540.9,284.4 541.5,256.8 	"/>
	<polygon class="st10" points="513.5,273.9 506.5,284.4 522.5,298.2 526.4,293.9 525.5,291.4 	"/>
	<polygon class="st2" points="525.5,291.4 568.7,286.3 570.5,296 522.5,298.2 	"/>
	<polygon class="st0" points="555.7,271.8 577.3,255.9 619,263 582.1,287.4 	"/>
	<polygon class="st10" points="555.7,271.8 552,296.9 581.1,306.2 584.8,292.5 582.1,284.4 	"/>
	<polygon class="st2" points="619,263 625.3,292.4 581.1,306.2 582.1,284.4 	"/>
</g>
<g id="chair">
	<polygon class="st21" points="153.7,84.7 140.3,101 135,132.3 153.7,117.7 	"/>
	<polygon class="st1" points="151,117.7 153.7,84.7 189.1,96.7 206.9,101 253.5,75.7 265.4,100 209.9,113.2 	"/>
	<polygon class="st21" points="161.4,111.9 161.4,96.7 178.7,102.4 172.6,110.4 	"/>
	<polygon class="st21" points="236.5,93.8 249.4,87.3 254.9,97.8 241.8,97.8 	"/>
	<polygon class="st22" points="149.3,342.3 242.3,331 297.3,304.8 256.5,280.4 183,279.1 69.5,312.3 	"/>
	<polygon class="st23" points="172.6,249 165,275.1 192.4,305.1 	"/>
	<polygon class="st21" points="262.8,220.3 276.5,244.2 282,271.3 271.5,310.1 261,304.4 	"/>
	<polygon class="st23" points="151,117.7 135,132.3 172.6,222.1 182.7,226 170,173.6 	"/>
	<polygon class="st21" points="172.6,222.1 182.7,226 194.9,256.2 197.1,282.7 192.4,315.3 164.5,245.2 	"/>
	<polygon class="st10" points="261,304.4 214.6,308.8 217.3,276.5 264.6,272.9 	"/>
	<polygon class="st24" points="151,117.7 206.1,87.3 265.4,100 272.1,212.4 262.8,220.3 262.4,254.3 216.6,253.4 202.8,227.4 
		182.7,226 	"/>
	<polygon class="st21" points="168,124 206.9,101 251.5,110.5 260.5,215.3 195.1,224.4 	"/>
	<polygon class="st1" points="182.7,226 192.9,256.2 205.8,258.2 216.6,253.4 204.8,224.4 	"/>
	<polygon class="st25" points="272.1,212.4 306,239.7 291.1,247.3 275.5,245.2 262.8,220.3 267.3,214.5 	"/>
	<polygon class="st1" points="275.5,245.2 280,272.3 293,273.9 310.7,268.7 306,239.7 	"/>
	<polygon class="st10" points="192.9,256.2 194.1,282.7 207.5,284.3 222.2,279.2 221.3,266 216.6,253.4 	"/>
	<polygon class="st24" points="310.7,268.7 297.3,304.8 271.5,310.1 280,272.3 	"/>
	<polygon class="st21" points="222.2,279.2 215.5,314.3 192.4,315.3 194.1,282.7 	"/>
	<polygon class="st1" points="250.8,248.7 262.2,247.3 268,258.2 	"/>
	<polygon class="st11" points="152.2,102.7 160.4,92.7 171.3,100 180.8,94 158.7,86.4 142.7,94.5 141.3,99 	"/>
	<polygon class="st3" points="165,52.7 173,39.7 175.9,57.3 170.7,56.3 	"/>
	<polygon class="st7" points="138.8,57.3 126.2,47.2 132,66.7 137.2,62.8 	"/>
	<polygon class="st4" points="146.1,94 158.7,86.4 171.3,90.6 172.6,69.8 156,81.9 138.8,75.7 	"/>
	<polygon class="st3" points="156,81.9 155.8,67.7 152,57.3 138.8,57.3 132,66.7 140.3,101 152.2,102.7 144.3,80 	"/>
	<polygon class="st7" points="152,57.3 165,52.7 175.9,57.3 180.8,94 171.3,100 170.1,75.7 156,81.9 	"/>
	<polygon class="st4" points="143.3,67.8 150.8,75.7 143.2,74.3 	"/>
	<polygon class="st4" points="160.3,73.8 166.2,64.3 168.2,71 	"/>
	<polygon class="st9" points="160.9,79.7 155,75.7 155,78.8 156,81.9 	"/>
	<polygon class="st7" points="155,75.7 151.5,81.1 156,81.9 	"/>
</g>
<g id="intj">
	<polygon class="st3" points="235.3,193.8 244.2,193.8 258.8,204.1 261.2,209.9 262.8,220.1 247.8,216.4 242.3,211.1 	"/>
	<polygon class="st18" points="242.3,185.2 249.4,193.8 256.5,191.5 255,185.1 	"/>
	<polygon class="st7" points="251.3,217.3 219.4,222.5 204.8,226 217.6,250.9 233.4,250.5 247,243.6 	"/>
	<polygon class="st3" points="216.6,253.4 247,249 268,258.2 247.9,270.8 222.2,279.2 	"/>
	<polygon class="st14" points="203,207.1 176.9,205.5 182.6,196.6 	"/>
	<polygon class="st5" points="175.9,163.8 184.6,206 203,207.1 209.9,199.6 192.8,162.1 185.5,167.8 	"/>
	<polygon class="st6" points="182.6,196.6 201.2,198.6 205.8,198.6 206.9,194.9 177.9,173.6 	"/>
	<polygon class="st14" points="177.9,173.6 206.9,194.9 192.8,159.1 	"/>
	<polygon class="st17" points="235.6,273.9 239.1,312.3 242.5,312.3 252.8,276.9 	"/>
	<polygon class="st9" points="206.9,194.9 235.3,193.8 251.3,217.3 204.8,226 201.2,198.6 	"/>
	<polygon class="st14" points="239.1,126.4 254.9,141.2 247,169.3 	"/>
	<polygon class="st17" points="239.1,126.4 242.2,141.5 246,147 245.2,155.7 250.7,182.7 230.7,188.6 222,199.6 209.9,196.6 
		188,165.8 212.6,143.4 	"/>
	<polygon class="st14" points="174.8,149.9 190.5,120.2 229.8,110.4 202.2,131 	"/>
	<polygon class="st18" points="206.9,151.1 216.9,192.3 221.8,195.8 223.6,203.1 206.9,194.9 188,165.8 	"/>
	<polygon class="st20" points="213.3,193.1 230.7,188.6 223.6,203.1 	"/>
	<polygon class="st19" points="235.3,166.7 229.5,168 224.2,146.4 230.1,145 	"/>
	<polygon class="st3" points="212.4,161.8 210.3,153.1 224.9,149.1 224.2,146.4 206.9,151.1 210.3,165.3 227.7,160.6 227,157.9 	"/>
	<polygon class="st3" points="245,140.8 230,144.9 230.6,147.6 242.8,144.4 244.6,153.1 232.7,156.3 233.4,159.1 247.9,155.1 	"/>
	<polygon points="224.2,146.4 217.9,148.1 211,148.1 214.6,145.4 	"/>
	<polygon points="230.1,145 234.9,140.2 241.8,139.2 233.2,137.2 	"/>
	<polygon class="st14" points="193.9,158.3 199.9,167.8 201.8,166.5 201.6,155.3 	"/>
	<polygon class="st20" points="235.3,166.7 233.2,169.2 229.5,168 	"/>
	<path d="M241.2,149.1c0.3,1.4-0.3,2.6-1.2,2.8s-2-0.7-2.3-2.1s0.3-2.6,1.2-2.8S240.9,147.8,241.2,149.1z"/>
	<line class="st26" x1="84.5" y1="323.9" x2="95.6" y2="326.2"/>
	<polygon class="st18" points="239.1,312.3 253.5,312.3 249,307.6 244.7,304.8 	"/>
	<polygon class="st17" points="202.2,171.5 194.7,176 188,165.8 195.2,160.3 	"/>
	<polygon class="st18" points="225.1,158.4 220.4,152.5 210.7,154.8 210.3,153.1 224.9,149.1 227,157.9 	"/>
	<path d="M223.5,153.7c0.3,1.4-0.3,2.6-1.2,2.8s-2-0.8-2.3-2.1s0.3-2.6,1.2-2.8S223.2,152.4,223.5,153.7z"/>
	<polygon class="st18" points="232.7,156.3 233.2,149.2 239.2,145.4 230.6,147.6 	"/>
	<polygon class="st20" points="250.7,284.3 236,278.2 244.3,276.5 252.8,276.9 	"/>
	<polygon class="st18" points="234,161.4 241.8,156.8 233.4,159.1 	"/>
	<polygon class="st18" points="210.3,165.3 228.3,163.7 227.7,160.6 	"/>
	<polygon class="st20" points="195,176.5 199.7,183.8 202.2,171.5 194.7,176 	"/>
	<polygon class="st20" points="190.4,166.3 194.5,163.5 198.1,169 	"/>
	<polygon class="st5" points="162.9,158.4 177.9,173.6 244.2,122.5 231.9,113.2 	"/>
	<polygon class="st12" points="162.9,158.4 203.4,139.1 244.2,122.5 234.2,107.6 	"/>
	<polygon class="st5" points="244.8,311.7 249,307.6 255.2,310.9 255,312.5 240,312.3 238.9,309.6 240.2,310.9 	"/>
	<polygon class="st14" points="255.2,310.9 240.2,310.9 238.9,309.6 239.1,313 256.1,313 	"/>
	<polygon class="st17" points="252.8,276.9 268.7,304.4 271.9,303.2 269.8,275.6 	"/>
	<polygon class="st18" points="268.7,304.4 282.1,299.3 276.2,296.4 271.1,295.3 	"/>
	<polygon class="st20" points="269.8,275.6 256.4,283 252.8,276.9 260,275.1 	"/>
	<polygon class="st5" points="273.9,301.5 276.2,296.4 283.2,297.4 283.6,299 270.9,303.6 269.5,303.4 269.2,302.7 	"/>
	<polygon class="st14" points="283.2,297.4 269.2,302.7 267.3,302 268.9,305.1 284.8,299 	"/>
	<polygon class="st20" points="240.4,132.4 215.5,144.7 239.1,126.4 	"/>
	<polygon class="st9" points="222.2,178.2 231.8,180.3 239.7,176.4 232.3,176.4 	"/>
	<polygon class="st3" points="239.7,176.4 222.2,178.2 231,174.2 	"/>
	<polygon class="st27" points="223.6,203.1 236.5,209.9 228.2,193.8 	"/>
	<polygon class="st27" points="206.9,194.9 223.6,203.1 219.4,217.3 	"/>
	<polygon class="st4" points="268,258.2 269.8,275.6 222.2,279.2 	"/>
	<polygon class="st12" points="258.8,204.1 262.8,201.9 268.1,202.2 272.1,212.4 262.8,220.1 	"/>
	<polygon class="st17" points="268.1,202.2 260.7,185.1 257,186.1 254.9,189.6 258.8,204.1 	"/>
	<polygon class="st19" points="260.7,185.1 249.7,178.4 242.3,185.2 254.9,189.6 	"/>
	<polygon class="st4" points="268,258.2 216.6,253.4 247,243.6 	"/>
	<polygon class="st3" points="204.8,226 218.6,232.1 226.3,233.9 247,243.6 216.6,253.4 	"/>
	<polygon class="st3" points="201.2,198.6 204.8,226 202.2,230.8 192.4,241.5 190.4,206.5 	"/>
	<polygon class="st28" points="262.8,220.1 279.9,218.7 272.1,212.4 	"/>
	<polygon class="st28" points="262.8,220.1 247,243.6 251.3,217.3 	"/>
	<polygon class="st12" points="204.8,226 214.2,229.5 212.2,236.9 207.1,240.4 192.4,241.5 	"/>
	<polygon class="st20" points="223.3,246.2 222.3,251.5 230.7,248.8 226.2,246 	"/>
	<polygon class="st20" points="217.9,239.1 218.9,244 223.3,246.2 224.1,238.6 	"/>
	<polygon class="st17" points="214.2,229.5 226.3,233.9 225.6,237.9 223.4,240 207.1,240.4 	"/>
	<polygon class="st18" points="226.3,233.9 230.7,248.8 223.3,246.2 223.4,240 	"/>
</g>
<g id="table">
	<polygon class="st14" points="209.9,326.2 195,320.7 192.9,312.5 209.9,309.6 	"/>
	<polygon class="st14" points="110.3,319.4 132,313.6 129,305.1 109,297.4 	"/>
	<polygon class="st12" points="146.8,265.2 229.8,294.4 152,318.3 99.8,272.9 	"/>
	<polygon class="st6" points="229.8,294.4 230.7,322.7 209.9,326.2 207.5,312.3 163,323.9 161,338 149.3,342.3 149.3,326.2 
		152,315.3 	"/>
	<polygon class="st5" points="152,315.3 99.8,272.9 98.6,310.6 110.3,319.4 111,299.6 137.3,321 135,334.7 149.3,342.3 150.7,328 	
		"/>
	<polygon class="st11" points="99.8,272.9 128,295.8 171.3,290.8 148.6,272.9 	"/>
	<polygon class="st11" points="183.7,294.5 195.8,291.1 213.5,294.4 192.4,301.9 	"/>
	<polygon class="st29" points="128,285.3 116.5,270.1 116.5,279.1 128,295.8 	"/>
	<polygon class="st27" points="158.7,280.4 128,285.3 127,290 128,295.8 158,289.4 	"/>
	<polygon class="st3" points="128,286.3 116.5,270.1 146.8,265.2 158.7,280.4 	"/>
	<polygon class="st7" points="137.6,271.1 156,258.2 116.6,251.6 95.6,263.1 	"/>
	<polygon class="st0" points="156,268.7 137.6,279.1 136.1,273.9 137.6,270.1 156,258.2 	"/>
	<polygon class="st4" points="137.6,270.1 95.6,263.1 95.7,272.3 137.6,279.1 	"/>
	<polygon class="st29" points="207.6,263.2 192.9,256.3 192.9,267.5 191.7,274.5 192.9,297.9 202,294.5 195.8,291.1 195.8,282.5 	
		"/>
	<polygon class="st27" points="178.1,263.2 192.9,256.3 192.9,297.9 183.7,294.5 189.9,291.1 189.9,282 	"/>
	<polygon class="st29" points="178.1,263.2 192.9,267.5 193.5,262.6 192.9,256.3 	"/>
	<polygon class="st27" points="192.9,256.3 192.9,267.5 207.6,263.2 	"/>
	<polygon class="st5" points="184,264.9 192.9,261.1 200.9,264.9 192.9,267.5 	"/>
	<polygon class="st6" points="183,266.7 192.9,269.8 192.9,281.4 	"/>
	<polygon class="st5" points="192.9,269.8 202.1,266.8 192.9,281.4 	"/>
</g>
</svg>
